<svg xmlns="http://www.w3.org/2000/svg" viewBox="0 0 105 38"><defs><style>.cls-1{font-size:20px;font-family:Arial-BoldMT, Arial;font-weight:700;}.cls-2{fill:#808184;}.cls-3{fill:#ec1c24;}</style></defs><title>2Axles</title><g id="numbers"><text class="cls-1" transform="translate(4 26)">2</text></g><g id="Vehicles"><path class="cls-2" d="M71,18c-1.37-.19-7-.75-8.75-.75a77.47,77.47,0,0,0-7.94-4.53,5.36,5.36,0,0,0-2.82-.61H43.37c-1.88,0-2.38.64-4.13,1.14s-7,3.45-7.51,3.5c-.85.09-2.94.3-4.62.45a2.54,2.54,0,0,0-2.37,2.75v5.68c.62.37,8,1,8,1H77.25s.75-.25.75-.64V22.12C78,19.75,74.19,18.4,71,18ZM48,17H36.85c-.18,0-.62-.12-.1-.42.06,0,4-2.36,4.54-2.6a6.85,6.85,0,0,1,2.23-.81H48Zm10.37,0H50V13.17h2.84a47.85,47.85,0,0,1,5.93,3.09C59.12,16.65,59.08,17,58.34,17Z"/></g><g id="Wheels"><circle class="cls-3" cx="69.15" cy="25.95" r="3.97"/><circle class="cls-3" cx="35.61" cy="25.95" r="3.97"/></g></svg>