<svg xmlns="http://www.w3.org/2000/svg" viewBox="0 0 105 38"><defs><style>.cls-1{font-size:20px;font-family:Arial-BoldMT, Arial;font-weight:700;}.cls-2{fill:#808184;}.cls-3{fill:#ec1c24;}</style></defs><title>3Axles</title><g id="numbers"><text class="cls-1" transform="matrix(1, 0, 0, 1, 3.89, 25.95)">3</text></g><g id="Vehicles"><path class="cls-2" d="M85.53,14C83.72,12.09,81,11.5,77,11.5h-5.3V7H24V29.91H87V17.45A6.75,6.75,0,0,0,85.53,14Zm-6.36,5.45H78V15.54h1.21Zm1.27-3.95h3.94V17a.36.36,0,0,0-.36.37v2.09H80.44Zm6,3.95H85.37V15.54c.68.38,1.11,1.86,1.11,3.14Z"/></g><g id="Wheels"><circle class="cls-3" cx="31.97" cy="28.94" r="3.65"/><circle class="cls-3" cx="40.2" cy="28.94" r="3.65"/><circle class="cls-3" cx="77.96" cy="28.94" r="3.65"/></g></svg>