<svg xmlns="http://www.w3.org/2000/svg" viewBox="0 0 105 38"><defs><style>.cls-1{font-size:20px;font-family:Arial-BoldMT, Arial;font-weight:700;}.cls-2{fill:#808184;}.cls-3{fill:#ec1c24;}</style></defs><title>4Axles</title><g id="numbers"><text class="cls-1" transform="translate(3.33 26)">4</text></g><g id="Vehicles"><path class="cls-2" d="M99.47,13.76c-1.73-1.73-4.25-2.32-7.91-2.39h-6V23.48H87V25H77.41V24h5.9V7.53H19V24h2.07v1.15l-.53,5.13.46.05.41-4h7.86V24H74.73v1H65.9v.38l-.5,4.91.45.05.22-2.18H81.8v.89H101V17A6.13,6.13,0,0,0,99.47,13.76ZM93.58,18.9H92.44V15.17h1.14Zm1.19-3.73H98.5V16.7a.23.23,0,0,0-.23.23v2h-3.5Zm5.71,3.73H99.4V15.17c.76.31,1.08,1.59,1.08,2.9Z"/></g><g id="Wheels"><circle class="cls-3" cx="92.1" cy="28.62" r="3.38"/><circle class="cls-3" cx="25.17" cy="28.62" r="3.38"/><circle class="cls-3" cx="77.41" cy="28.62" r="3.38"/><circle class="cls-3" cx="70.12" cy="28.62" r="3.38"/></g></svg>