<svg xmlns="http://www.w3.org/2000/svg" viewBox="0 0 105 38"><defs><style>.cls-1{font-size:20px;font-family:Arial-BoldMT, Arial;font-weight:700;}.cls-2{fill:#808184;}.cls-3{fill:#ec1c24;}</style></defs><title>5Axles</title><g id="numbers"><text class="cls-1" transform="translate(4 26)">5</text></g><g id="Vehicles"><path class="cls-2" d="M99.48,14c-1.74-1.73-4.28-2.32-8-2.38H85.59V23.66h1.5V25H77.51v-.81h5.88V7.78H19V24.19h2.42v.42l-.59,5.82.59.06.41-4H37.11V24.19H74.85V25H66.06v.46l-.58,5,.6.06.22-2.17H81.88v.88H101v-12A6.09,6.09,0,0,0,99.48,14Zm-5.87,5.11H92.47v-3.7h1.14Zm1.19-3.7h3.71v1.89h0a.29.29,0,0,0-.3.3v1.51H94.8Zm5.75,3.7H99.41v-3.7a3.72,3.72,0,0,1,1.14,2.88Z"/></g><g id="Wheels"><circle class="cls-3" cx="92.14" cy="28.77" r="3.37"/><circle class="cls-3" cx="25.5" cy="28.77" r="3.37"/><circle class="cls-3" cx="33.28" cy="28.77" r="3.37"/><circle class="cls-3" cx="77.51" cy="28.77" r="3.37"/><circle class="cls-3" cx="70.26" cy="28.77" r="3.37"/></g></svg>