<svg xmlns="http://www.w3.org/2000/svg" viewBox="0 0 105 38"><defs><style>.cls-1{font-size:20px;font-family:Arial-BoldMT, Arial;font-weight:700;}.cls-2{fill:#808184;}.cls-3{fill:#ec1c24;}</style></defs><title>6Axles</title><g id="numbers"><text class="cls-1" transform="translate(4 26)">6</text></g><g id="Vehicles"><path class="cls-2" d="M100,15.47c-1.2-1.2-3-1.6-5.5-1.64H90.36v8.33h1V23H84.78v-.45h4.06V11.29H54.43V22.43H52.92V11.29H19V22.55h1.68v.28l-.41,4,.41,0L21,24.15H26.6v-1.6H45.31v.28l-.41,4,.42,0,.27-2.72h5.65v-.57h5.19l-.33,3.25.41,0,.28-2.72h5.64v-1.6H82.94V23H76.87l-.4,3.83.41,0,.16-1.5H87.8V26H101v-8.3A4.2,4.2,0,0,0,100,15.47ZM95.9,19h-.79V16.44h.79Zm.82-2.56h2.56v1a.2.2,0,0,0-.21.2V19H96.72Zm4,2.56H99.9V16.44a2.56,2.56,0,0,1,.79,2Z"/></g><g id="Wheels"><circle class="cls-3" cx="94.88" cy="25.68" r="2.33"/><circle class="cls-3" cx="59.67" cy="25.69" r="2.31"/><circle class="cls-3" cx="23.84" cy="25.69" r="2.31"/><circle class="cls-3" cx="48.48" cy="25.69" r="2.31"/><circle class="cls-3" cx="84.78" cy="25.68" r="2.33"/><circle class="cls-3" cx="79.77" cy="25.68" r="2.33"/></g></svg>