<svg xmlns="http://www.w3.org/2000/svg" viewBox="0 0 105 38"><defs><style>.cls-1{font-size:20px;font-family:Arial-BoldMT, Arial;font-weight:700;}.cls-2{fill:#808184;}.cls-3{fill:#ec1c24;}</style></defs><title>7Axles</title><g id="numbers"><text class="cls-1" transform="translate(4 26)">7</text></g><g id="Vehicles"><path class="cls-2" d="M100,15.47c-1.2-1.2-3-1.6-5.5-1.64H90.36v8.33h1V23H84.79v-.45h4.06V11.3H54.47V22.43H52.94V11.3H19V22.55h.72v.28l-.41,4,.41,0L20,24.15h5.64v-1.6H45.36v.27l-.41,4,.41,0,.28-2.72h5.64v-.57h5.18l-.33,3.25.41,0,.28-2.72h11.3v-1.6H83V23H76.89l-.4,3.82.41,0,.15-1.5H87.81V26H101V17.68A4.2,4.2,0,0,0,100,15.47ZM95.9,19h-.78V16.44h.78Zm.82-2.56h2.56v1a.21.21,0,0,0-.21.2V19H96.72Zm4,2.56H99.9V16.44a2.58,2.58,0,0,1,.79,2Z"/></g><g id="Wheels"><circle class="cls-3" cx="94.88" cy="25.67" r="2.33"/><circle class="cls-3" cx="59.7" cy="25.69" r="2.31"/><circle class="cls-3" cx="65.18" cy="25.69" r="2.31"/><circle class="cls-3" cx="22.89" cy="25.69" r="2.31"/><circle class="cls-3" cx="48.52" cy="25.69" r="2.31"/><circle class="cls-3" cx="84.79" cy="25.67" r="2.33"/><circle class="cls-3" cx="79.79" cy="25.67" r="2.33"/></g></svg>