<svg xmlns="http://www.w3.org/2000/svg" viewBox="0 0 105 38"><defs><style>.cls-1{font-size:20px;font-family:Arial-BoldMT, Arial;font-weight:700;}.cls-2{fill:#808184;}.cls-3{fill:#ec1c24;}</style></defs><title>8Axles</title><g id="numbers"><text class="cls-1" transform="translate(4 26)">8</text></g><g id="Vehicles"><path class="cls-2" d="M100,15.23c-1.2-1.19-3-1.59-5.5-1.64H90.37v8.32h1v1H84.8v-.59h4V11.06H54.49V22.19L53,22.09V11l-34,.1V22.31h.75v.28l-.41,4,.42,0L20,23.91H30.85v-1.6l13.93-.11v.28l-.41,4,.41,0,.28-2.72H50.7v-.56l5.78.1-.33,3.25.41,0,.28-2.72H68.13v-1.6H83v.59H76.89l-.39,3.68.41,0,.15-1.5H87.81v.61H101V17.44A4.23,4.23,0,0,0,100,15.23Zm-4,3.53h-.78V16.2h.78Zm.82-2.56h2.56v1a.21.21,0,0,0-.21.21v1.34H96.72Zm4,2.56H99.9V16.2a2.58,2.58,0,0,1,.79,2Z"/></g><g id="Wheels"><circle class="cls-3" cx="94.89" cy="25.43" r="2.32"/><circle class="cls-3" cx="59.72" cy="25.45" r="2.31"/><circle class="cls-3" cx="65.19" cy="25.45" r="2.31"/><circle class="cls-3" cx="22.92" cy="25.45" r="2.31"/><circle class="cls-3" cx="28.09" cy="25.45" r="2.31"/><circle class="cls-3" cx="47.94" cy="25.34" r="2.31"/><circle class="cls-3" cx="84.8" cy="25.43" r="2.32"/><circle class="cls-3" cx="79.79" cy="25.43" r="2.32"/></g></svg>