<svg id="Layer_1" data-name="Layer 1" xmlns="http://www.w3.org/2000/svg" viewBox="0 0 14 18"><defs><style>.cls-1{fill:#fff;}</style></defs><title>calculator_icon</title><path id="calculator" class="cls-1" d="M12.83,16.22a.52.52,0,0,1-.53.52h-2a.51.51,0,0,1-.53-.52V14.94a.51.51,0,0,1,.53-.51h2a.51.51,0,0,1,.53.51Zm0-3.48a.52.52,0,0,1-.53.52h-2a.51.51,0,0,1-.53-.52V11.46a.51.51,0,0,1,.53-.51h2a.51.51,0,0,1,.53.51Zm0-3.47a.51.51,0,0,1-.53.51h-2a.51.51,0,0,1-.53-.51V8a.52.52,0,0,1,.53-.52h2a.51.51,0,0,1,.53.52Zm0-4.36a1,1,0,0,1-1.06,1H2.26a1,1,0,0,1-1-1V2.31a1,1,0,0,1,1-1h9.51a1,1,0,0,1,1.06,1ZM1.21,8a.51.51,0,0,1,.52-.52h2A.51.51,0,0,1,4.24,8V9.27a.51.51,0,0,1-.53.51h-2a.5.5,0,0,1-.52-.51Zm0,3.47A.51.51,0,0,1,1.73,11h2a.51.51,0,0,1,.53.51v1.28a.52.52,0,0,1-.53.52h-2a.51.51,0,0,1-.52-.52Zm0,3.48a.51.51,0,0,1,.52-.51h2a.51.51,0,0,1,.53.51v1.28a.52.52,0,0,1-.53.52h-2a.51.51,0,0,1-.52-.52ZM5.5,8A.52.52,0,0,1,6,7.47H8A.51.51,0,0,1,8.54,8V9.27A.51.51,0,0,1,8,9.78H6a.51.51,0,0,1-.53-.51Zm0,3.47A.51.51,0,0,1,6,11H8a.51.51,0,0,1,.53.51v1.28a.52.52,0,0,1-.53.52H6a.51.51,0,0,1-.53-.52Zm0,3.48A.51.51,0,0,1,6,14.43H8a.51.51,0,0,1,.53.51v1.28a.52.52,0,0,1-.53.52H6a.51.51,0,0,1-.53-.52ZM14,17V1A1,1,0,0,0,13,0H1.07A1,1,0,0,0,0,1V17a1,1,0,0,0,1.05,1H13A1,1,0,0,0,14,17"/></svg>