<svg id="Layer_1" data-name="Layer 1" xmlns="http://www.w3.org/2000/svg" viewBox="0 0 76 34"><defs><style>.cls-1{fill:#fff;}.cls-2{fill:#009d57;}</style></defs><title>Cash_TBP_selector</title><rect class="cls-1" x="5.94" y="0.51" width="25.78" height="13.55"/><path class="cls-2" d="M5.94,14.06V.51H31.72V14.06ZM30.79,4.9a4,4,0,0,1-2.88-3.47H9.74A4,4,0,0,1,6.86,4.9V9.78A3.85,3.85,0,0,1,9.7,13.14H28a3.86,3.86,0,0,1,2.84-3.36ZM24.15,7.27A5.13,5.13,0,0,1,22.59,11a5.35,5.35,0,0,1-7.53,0,5.16,5.16,0,0,1-1.55-3.77,5,5,0,0,1,1.55-3.73,5.31,5.31,0,0,1,7.5,0A5,5,0,0,1,24.15,7.27Zm-2.4,1.22c0-1.06-.89-1.73-2.66-2V5.35a.69.69,0,0,1,.66.66l1.77-.37c-.05-1.11-.86-1.67-2.43-1.7V3.13h-.67v.81C16.8,4.09,16,4.79,16,6.05a1.62,1.62,0,0,0,.78,1.48,5.93,5.93,0,0,0,1.66.55V9.19a1,1,0,0,1-.92-.89l-1.77.56c.22,1.15,1.12,1.72,2.69,1.7V11.7h.67V10.56a4,4,0,0,0,1.1-.12A1.82,1.82,0,0,0,21.75,8.49Zm-4-2.7c0-.29.19-.44.59-.44h.07v1C18,6.31,17.76,6.11,17.76,5.79Zm2.06,3c0,.32-.18.48-.55.48h-.18V8.15C19.58,8.28,19.82,8.47,19.82,8.75Z"/><path class="cls-2" d="M45.46,6.43H42.09V4.18A4.08,4.08,0,0,0,42,3a.47.47,0,0,0-.48-.25A.5.5,0,0,0,41,3a4.8,4.8,0,0,0-.11,1.29v6A4.46,4.46,0,0,0,41,11.55a.5.5,0,0,0,.51.29.48.48,0,0,0,.49-.29,4.64,4.64,0,0,0,.12-1.36V8.56h3.37v.5a10,10,0,0,1-.28,2.86,2.92,2.92,0,0,1-1.26,1.48,4.33,4.33,0,0,1-2.4.63,5.08,5.08,0,0,1-2.45-.53A2.64,2.64,0,0,1,37.8,12a9.73,9.73,0,0,1-.31-2.86V5.36a18.09,18.09,0,0,1,.09-2.11,3,3,0,0,1,.57-1.35,3.23,3.23,0,0,1,1.33-1,5.45,5.45,0,0,1,4.4.2,2.83,2.83,0,0,1,1.28,1.44,8.82,8.82,0,0,1,.3,2.68Z"/><path class="cls-2" d="M52.11.78l1.93,13H50.59l-.18-2.33H49.2L49,13.76H45.51l1.72-13ZM50.32,9.13c-.17-1.47-.34-3.29-.51-5.45q-.51,3.72-.65,5.45Z"/><path class="cls-2" d="M61.37,4.71H58.24v-1a1.89,1.89,0,0,0-.12-.86.46.46,0,0,0-.4-.19.51.51,0,0,0-.46.25,1.41,1.41,0,0,0-.16.76,2.11,2.11,0,0,0,.18,1,2.54,2.54,0,0,0,.95.79,9.49,9.49,0,0,1,2.84,2.2,5,5,0,0,1,.58,2.76,4.83,4.83,0,0,1-.32,2.05,2.65,2.65,0,0,1-1.25,1.1,5,5,0,0,1-2.17.44,4.86,4.86,0,0,1-2.31-.51,2.53,2.53,0,0,1-1.26-1.31A6.66,6.66,0,0,1,54.05,10V9.11h3.13v1.58a2.07,2.07,0,0,0,.13.94.52.52,0,0,0,.47.21.54.54,0,0,0,.5-.27,1.48,1.48,0,0,0,.17-.78,2.39,2.39,0,0,0-.32-1.5,9.64,9.64,0,0,0-1.57-1.18A16.08,16.08,0,0,1,54.89,6.9a2.89,2.89,0,0,1-.68-1,4.59,4.59,0,0,1-.27-1.7A4.75,4.75,0,0,1,54.32,2,2.63,2.63,0,0,1,55.55.9,4.9,4.9,0,0,1,57.6.51a5.44,5.44,0,0,1,2.25.42A2.39,2.39,0,0,1,61.07,2a5.73,5.73,0,0,1,.3,2.2Z"/><path class="cls-2" d="M70.06.78v13H66.69V8.31h-1v5.45H62.3V.78h3.38V5.42h1V.78Z"/><path class="cls-1" d="M65.43,19.34H10.57a4.18,4.18,0,0,0-4.19,4.18v5.35a4.2,4.2,0,0,0,4.19,4.19H65.43a4.2,4.2,0,0,0,4.19-4.19V23.52a4.18,4.18,0,0,0-4.19-4.18Z"/><path d="M65.43,18.89H10.57a4.63,4.63,0,0,0-4.63,4.63v5.35a4.63,4.63,0,0,0,4.63,4.63H65.43a4.63,4.63,0,0,0,4.63-4.63V23.52A4.63,4.63,0,0,0,65.43,18.89Zm4.19,10a4.2,4.2,0,0,1-4.19,4.19H10.57a4.2,4.2,0,0,1-4.19-4.19V23.52a4.18,4.18,0,0,1,4.19-4.18H65.43a4.18,4.18,0,0,1,4.19,4.18Z"/><path d="M12.63,22.6v1.27H11.28v5.92H9.87V23.87H8.52V22.6Z"/><path d="M12.87,26.18A4.1,4.1,0,0,1,13,25.06a3.68,3.68,0,0,1,3.56-2.6,3.44,3.44,0,0,1,1.38.28,3.64,3.64,0,0,1,1.19.79A3.76,3.76,0,0,1,20,24.74a3.58,3.58,0,0,1,.28,1.41A4.06,4.06,0,0,1,20,27.6a3.65,3.65,0,0,1-.78,1.2,3.79,3.79,0,0,1-4.13.85,3.56,3.56,0,0,1-1.2-.85,3.81,3.81,0,0,1-.76-1.2A3.9,3.9,0,0,1,12.87,26.18Zm1.48-.05a2.49,2.49,0,0,0,.15.87,2.19,2.19,0,0,0,.46.73,2.34,2.34,0,0,0,.75.55,2,2,0,0,0,.86.2,2.14,2.14,0,0,0,1.59-.67,2.38,2.38,0,0,0,.64-1.68,2.13,2.13,0,0,0-.65-1.56,2.07,2.07,0,0,0-1.55-.65,2.17,2.17,0,0,0-1.59.64A2.12,2.12,0,0,0,14.35,26.13Z"/><path d="M24.79,29.79H21.14V22.6h1.4v5.93h2.25Z"/><path d="M29.24,29.79H25.59V22.6H27v5.93h2.26Z"/><path d="M31,26.49v1.17H29.25V26.49Z"/><path d="M31.9,29.79V22.6h1.54a7,7,0,0,1,.75,0,2.09,2.09,0,0,1,.48.13,2,2,0,0,1,.91.69,1.84,1.84,0,0,1,.32,1.06,1.74,1.74,0,0,1-.19.86,1.2,1.2,0,0,1-.55.54,1.57,1.57,0,0,1,.84.61,1.87,1.87,0,0,1,.3,1.07,2.46,2.46,0,0,1-.18.94,1.86,1.86,0,0,1-1.26,1.13,4.37,4.37,0,0,1-1.16.12Zm1.35-4.29h.16a1.47,1.47,0,0,0,.87-.21.74.74,0,0,0,.29-.63.67.67,0,0,0-.28-.6,1.45,1.45,0,0,0-.84-.19h-.2Zm0,3h.42a1.71,1.71,0,0,0,.95-.22.75.75,0,0,0,.3-.66.89.89,0,0,0-.32-.74,1.45,1.45,0,0,0-.93-.25h-.42Z"/><path d="M39.64,27.2v2.59H38.23V27.2l-2-4.6h1.54L39,25.7l1.24-3.1h1.53Z"/><path d="M42.94,26.49v1.17H41.16V26.49Z"/><path d="M45.18,29.79h-1.4V22.6h1.78a6,6,0,0,1,1.08.08,1.85,1.85,0,0,1,.63.23,2.16,2.16,0,0,1,.7.8,2.27,2.27,0,0,1,.25,1.06,2.09,2.09,0,0,1-.68,1.64,2.57,2.57,0,0,1-1.83.62h-.53Zm0-4h.37a1.4,1.4,0,0,0,.9-.26.88.88,0,0,0,.32-.73.85.85,0,0,0-.31-.72,1.47,1.47,0,0,0-.92-.24h-.36Z"/><path d="M52.52,29.79H48.87V22.6h1.39v5.93h2.26Z"/><path d="M54.73,28.28l-.56,1.51H52.72L55.5,22.6h1.22l2.75,7.19H58l-.56-1.51ZM56.93,27l-.85-2.31L55.21,27Z"/><path d="M62.94,22.6v1.27H61.59v5.92H60.18V23.87H58.83V22.6Z"/><path d="M67.48,29.79H63.6V22.6h3.88v1.27H65v1.64h2.49v1.24H65v1.78h2.49Z"/></svg>