<svg id="Green_Start" data-name="Green Start" xmlns="http://www.w3.org/2000/svg" viewBox="0 0 20 28"><defs><style>.cls-1{fill:#00e64d;}</style></defs><title>Green_Arrow</title><g id="GreenStart"><path class="cls-1" d="M10,25.67a38.77,38.77,0,0,0-6-8.89c-.32-.37-.62-.72-.89-1.06A9,9,0,1,1,17,15.7c-.29.35-.6.71-.94,1.1A39.55,39.55,0,0,0,10,25.67Z"/><path d="M10,2a8,8,0,0,1,6.19,13.07c-.28.34-.59.7-.92,1.08A40.4,40.4,0,0,0,10,23.53a40.15,40.15,0,0,0-5.29-7.41c-.32-.36-.61-.7-.88-1A8,8,0,0,1,10,2m0-2A10,10,0,0,0,2.28,16.36,41.5,41.5,0,0,1,10,28a42.27,42.27,0,0,1,7.74-11.67A10,10,0,0,0,10,0Z"/></g></svg>