<svg id="Layer_1" data-name="Layer 1" xmlns="http://www.w3.org/2000/svg" xmlns:xlink="http://www.w3.org/1999/xlink" viewBox="0 0 20 18"><defs><style>.cls-1,.cls-4,.cls-5{fill:none;}.cls-2{clip-path:url(#clip-path);}.cls-3{fill:#a6a6a6;}.cls-4,.cls-5{stroke:#a6a6a6;}.cls-5{stroke-linecap:round;}</style><clipPath id="clip-path"><rect class="cls-1" width="20" height="18"/></clipPath></defs><title>Printer_Icon</title><g class="cls-2"><path class="cls-3" d="M18.42,6a.71.71,0,1,1-.71-.71.71.71,0,0,1,.71.71M20,12V5A1,1,0,0,0,19,4H1.05A1,1,0,0,0,0,5V12a1,1,0,0,0,1.05,1H4V8H16v5H19A1,1,0,0,0,20,11.94"/><polygon class="cls-4" points="3.5 4.5 16.5 4.5 16.5 2.54 14.21 0.5 3.5 0.5 3.5 4.5"/><polyline class="cls-4" points="13.71 0.51 13.71 3.01 16.21 3.01"/><rect class="cls-4" x="3.5" y="8.5" width="13" height="9"/></g><line class="cls-5" x1="6.5" y1="10.5" x2="13.5" y2="10.5"/><line class="cls-5" x1="6.5" y1="14.5" x2="13.5" y2="14.5"/><line class="cls-5" x1="6.5" y1="12.5" x2="13.5" y2="12.5"/></svg>