<svg id="Reset_Icon" data-name="Reset Icon" xmlns="http://www.w3.org/2000/svg" xmlns:xlink="http://www.w3.org/1999/xlink" viewBox="0 0 16 19"><defs><style>.cls-1{fill:none;}.cls-2{clip-path:url(#clip-path);}.cls-3{fill:#666;}</style><clipPath id="clip-path"><rect class="cls-1" width="16" height="19"/></clipPath></defs><title>Reset_icon</title><g class="cls-2"><path class="cls-3" d="M8.63,2.11A.67.67,0,0,1,8,1.52V.33C8,0,7.68-.06,7.37,0l-4,2.86a.62.62,0,0,0,0,1l4,2.86A.4.4,0,0,0,8,6.45V5.36a.67.67,0,0,1,.84-.59,5,5,0,0,1,4.42,6,4.77,4.77,0,0,1-.73,1.68,1.19,1.19,0,0,0,.31,1.68,1.28,1.28,0,0,0,1.79-.3A7,7,0,0,0,16,9.7,7.75,7.75,0,0,0,8.63,2.11"/><path class="cls-3" d="M7.37,16.89a.67.67,0,0,1,.63.59v1.19c0,.29.32.39.63.29l4-2.86a.62.62,0,0,0,0-1l-4-2.86a.4.4,0,0,0-.63.29v1.09a.67.67,0,0,1-.84.59,5,5,0,0,1-4.42-6,4.77,4.77,0,0,1,.73-1.68,1.19,1.19,0,0,0-.31-1.68,1.28,1.28,0,0,0-1.79.3A7,7,0,0,0,0,9.3a7.83,7.83,0,0,0,7.37,7.59"/></g></svg>