<svg id="world" xmlns="http://www.w3.org/2000/svg" viewBox="0 0 20 20"><defs><style>.cls-1{fill:#fff;}</style></defs><title>Resources_Icon</title><g id="resources"><polygon class="cls-1" points="11.11 8.29 11.11 18.91 13.83 16.18 15.8 20 17.24 19.25 15.34 15.57 19.01 15.57 11.11 8.29"/><path class="cls-1" d="M19.85,11.72c0-.1,0-.2,0-.3a.88.88,0,0,1,0-.17L20,11c0-.08,0-.16,0-.23s0-.16,0-.24q0-.48,0-1c0-.1,0-.2,0-.3a.76.76,0,0,1,0-.15c0-.13,0-.25-.05-.38V8.64c0-.13,0-.26-.07-.39v0h0A10,10,0,0,0,10.9,0h0l-.41,0H9.53L9.12,0h0A10,10,0,0,0,.16,8.22h0v0c0,.13,0,.26-.07.39V8.7c0,.13,0,.25,0,.38a.76.76,0,0,1,0,.15c0,.1,0,.2,0,.3,0,.31,0,.63,0,.94,0,.11,0,.21,0,.31a.71.71,0,0,1,0,.14c0,.13,0,.26,0,.39v0c0,.14,0,.28.07.41h0a10,10,0,0,0,8.06,8.06h0l.09,0,.28,0,.2,0a1.15,1.15,0,0,0,.26,0l.26,0,.21,0H10V17.67a8.55,8.55,0,0,1-1.34-.11,20.51,20.51,0,0,1-.82-4c.72.05,1.44.07,2.16.07V12.33c-.76,0-1.52,0-2.28-.08a33.79,33.79,0,0,1,0-4.5,33.79,33.79,0,0,1,4.5,0,.49.49,0,0,0,0,.12A14.84,14.84,0,0,1,13.64,9c0-.37,0-.73-.05-1.09a20.68,20.68,0,0,1,4,.82,7.44,7.44,0,0,1,0,2.62l-1,.3.78.72L19.16,14a10,10,0,0,0,.68-2.24h0S19.85,11.74,19.85,11.72ZM7.17,2.87a24.63,24.63,0,0,0-.65,3.66,24.78,24.78,0,0,0-3.65.64A7.73,7.73,0,0,1,7.17,2.87Zm0,14.26a7.7,7.7,0,0,1-4.3-4.3,23.48,23.48,0,0,0,3.65.65A24.72,24.72,0,0,0,7.17,17.13Zm-.76-5a20.51,20.51,0,0,1-4-.82,7.68,7.68,0,0,1,0-2.62,20.51,20.51,0,0,1,4-.82A33.64,33.64,0,0,0,6.41,12.13ZM10,6.35q-1.1,0-2.13.06a20.39,20.39,0,0,1,.82-4,7.68,7.68,0,0,1,2.62,0,20.6,20.6,0,0,1,.81,4C11.44,6.37,10.73,6.35,10,6.35Zm3.47.17a24.78,24.78,0,0,0-.64-3.65,7.76,7.76,0,0,1,4.3,4.3A26,26,0,0,0,13.47,6.52Z"/></g></svg>