<svg id="_Layer_" data-name="&lt;Layer&gt;" xmlns="http://www.w3.org/2000/svg" viewBox="0 0 76 34"><defs><style>.cls-1{fill:#231f20;}.cls-2{fill:#fd0;}.cls-3{fill:#a7a9ac;}.cls-4{fill:#fff;}.cls-5{fill:#009d57;}.cls-6{fill:#008457;}</style></defs><title>SunPass_Button_icon</title><path class="cls-1" d="M.41,34V30.88H1a.87.87,0,0,1,1,.91.85.85,0,0,1-.92.9H1V34ZM1,32.19c.29,0,.46-.09.46-.41s-.09-.4-.34-.4H1Z"/><path class="cls-1" d="M4.1,34V30.88h.6c.38,0,1.07,0,1.07.88a.88.88,0,0,1-.43.8L5.86,34H5.23L4.7,32.54h0V34Zm.6-1.75h.1c.27,0,.38-.19.38-.44a.35.35,0,0,0-.4-.39H4.7Z"/><path class="cls-1" d="M9.17,30.88v.57H8.56v.67H9.1v.57H8.56v.69h.62V34H8V30.88Z"/><path class="cls-1" d="M11.27,34V30.88h.63a.87.87,0,0,1,1,.91.85.85,0,0,1-.92.9h-.14V34Zm.6-1.76c.29,0,.46-.09.46-.41s-.09-.4-.34-.4h-.12Z"/><path class="cls-1" d="M16,30.88,16.7,34h-.64L16,33.43h-.61l-.11.52h-.59l.7-3.07Zm-.26,1.26-.07-.47h0l-.06.47-.13.81h.42Z"/><path class="cls-1" d="M19.28,30.88V34h-.6V30.88Z"/><path class="cls-1" d="M21.44,34V30.88h.45c.11,0,1.36-.15,1.36,1.56,0,.88-.33,1.51-1.28,1.51Zm1.21-1.51c0-.39-.12-1-.61-1v2C22.52,33.43,22.65,32.82,22.65,32.44Z"/><path class="cls-1" d="M29.41,30.88v.57h-.47V34h-.6v-2.5h-.47v-.57Z"/><path class="cls-1" d="M33.44,32.42c0,1.15-.53,1.58-1.06,1.58s-1.06-.43-1.06-1.58.53-1.58,1.06-1.58S33.44,31.27,33.44,32.42Zm-1.06,1c.4,0,.43-.78.43-1s0-1-.43-1-.43.74-.43,1S32,33.44,32.38,33.44Z"/><path class="cls-1" d="M36.1,30.88v2.5h.62V34H35.5V30.88Z"/><path class="cls-1" d="M39.33,30.88v2.5H40V34H38.73V30.88Z"/><path class="cls-1" d="M44.69,34V30.88h.62a.87.87,0,0,1,1,.91.85.85,0,0,1-.92.9h-.13V34Zm.6-1.76c.29,0,.45-.09.45-.41s-.08-.4-.34-.4h-.11Z"/><path class="cls-1" d="M48.38,34V30.88H49c.39,0,1.07,0,1.07.88a.86.86,0,0,1-.43.8L50.14,34h-.63L49,32.54h0V34ZM49,32.2h.1c.28,0,.39-.19.39-.44a.35.35,0,0,0-.41-.39H49Z"/><path class="cls-1" d="M54.27,32.42c0,1.15-.53,1.58-1.07,1.58s-1.06-.43-1.06-1.58.53-1.58,1.06-1.58S54.27,31.27,54.27,32.42Zm-1.07,1c.4,0,.43-.78.43-1s0-1-.43-1-.42.74-.42,1S52.8,33.44,53.2,33.44Z"/><path class="cls-1" d="M58.27,32.24v.24c0,.65-.16,1.52-1,1.52s-1.08-.89-1.08-1.57.23-1.59,1.08-1.59a.91.91,0,0,1,.9.72l-.59.23c0-.15-.07-.39-.3-.39-.41,0-.45.73-.45,1s0,1,.46,1,.36-.42.36-.63h-.38v-.57Z"/><path class="cls-1" d="M60.32,34V30.88h.6c.38,0,1.07,0,1.07.88a.88.88,0,0,1-.43.8L62.08,34h-.63l-.52-1.41h0V34Zm.6-1.75H61c.28,0,.38-.19.38-.44a.35.35,0,0,0-.4-.39h-.08Z"/><path class="cls-1" d="M65.34,30.88,66.07,34h-.64l-.12-.52h-.6L64.6,34H64l.71-3.07Zm-.27,1.26L65,31.67h0l-.07.47L64.8,33h.43Z"/><path class="cls-1" d="M69,30.88l.3,1.81h0l.24-1.81h.8L70.64,34H70l-.14-2.21h0l-.1.76L69.52,34h-.46l-.3-1.47-.1-.68v-.06h0L68.57,34h-.65l.27-3.07Z"/><path class="cls-2" d="M21.51,12a11.86,11.86,0,1,1,23.71,0,11.86,11.86,0,1,1-23.71,0Z"/><path class="cls-3" d="M21.69,22.07S35.7,8,76,16.23c0,0-30.59-.56-42.31,13.72Z"/><path class="cls-4" d="M26.33,25.17S38.63,11.87,76,16.23c0,0-33.73-3.27-48.1,10Z"/><polygon class="cls-3" points="31.25 21.21 33.18 22.51 34.65 21.77 32.72 20.18 31.25 21.21"/><polygon class="cls-3" points="36.67 18.51 38.86 20.18 39.97 19.72 37.59 18.05 36.67 18.51"/><polygon class="cls-3" points="55.97 14.98 56.67 16.37 57.31 16.22 56.8 15.06 55.97 14.98"/><polygon class="cls-3" points="62.49 14.79 62.73 15.9 63.13 15.89 62.98 14.78 62.49 14.79"/><path class="cls-5" d="M16.09,24.28V8.09H13.61V23.81A1.18,1.18,0,0,1,12.41,25c-.82,0-.92-1.3-.92-1.3V8.09H8.7V24.18a3.55,3.55,0,0,0,3.71,3.35C14.65,27.48,16.06,26.2,16.09,24.28Z"/><path class="cls-6" d="M6.26,5.58l.82,2.7S3,9.58,3.22,11.81c0,0-.27,2,2.49,5s2.94,9.39-3.77,10.79L.65,25s3.77-.74,3.68-3.25-1.84-4.1-2.21-4.84-4.41-4.84.19-9.49A8.16,8.16,0,0,1,6.26,5.58Z"/><path class="cls-6" d="M63.19,7.44l.73,2.37s-3.63,1.14-3.39,3.1c0,0-.24,1.72,2.18,4.41s2.58,8.24-3.31,9.47L58.28,24.5s3.3-.65,3.22-2.85-1.61-3.6-1.93-4.25-3.87-4.24.16-8.33A7.2,7.2,0,0,1,63.19,7.44Z"/><path class="cls-6" d="M69.63,7.44l.72,2.37S66.72,11,67,12.91c0,0-.25,1.72,2.17,4.41s2.58,8.24-3.3,9.47L64.71,24.5s3.3-.65,3.22-2.85S66.32,18.05,66,17.4s-3.87-4.24.16-8.33A7.2,7.2,0,0,1,69.63,7.44Z"/><polygon class="cls-5" points="17.44 27.36 20.5 27.35 20.5 17.77 25.51 27.34 26.01 27.38 26.01 7.91 23.44 7.91 23.44 17.11 18.2 7.51 17.43 7.51 17.44 27.36"/><path class="cls-6" d="M45.58,5.4H40.8V27h3.31V18.05s5.52.37,5.79-6.52C49.9,11.53,49.81,6.23,45.58,5.4Zm1.29,6.32c-.28,4.09-2.94,3.63-2.94,3.63V7.91C47.05,8.09,46.87,11.72,46.87,11.72Z"/><path class="cls-6" d="M53,7.07H52.2L49.26,22.79H48l-.55,2.42h1.19l-.18,1.58h2.48L51.37,25h2.85l.46,1.68h2.94ZM51.74,22.7,52.82,18,54,22.7Z"/><path class="cls-5" d="M6.26,5.58l.82,2.7S3,9.58,3.22,11.81c0,0-.27,2,2.49,5s2.94,9.39-3.77,10.79L.65,25s3.77-.74,3.68-3.25-1.84-4.1-2.21-4.84-4.41-4.84.19-9.49A8.16,8.16,0,0,1,6.26,5.58Z"/><path class="cls-5" d="M63.19,7.44l.73,2.37s-3.63,1.14-3.39,3.1c0,0-.24,1.72,2.18,4.41s2.58,8.24-3.31,9.47L58.28,24.5s3.3-.65,3.22-2.85-1.61-3.6-1.93-4.25-3.87-4.24.16-8.33A7.2,7.2,0,0,1,63.19,7.44Z"/><path class="cls-5" d="M69.63,7.44l.72,2.37S66.72,11,67,12.91c0,0-.25,1.72,2.17,4.41s2.58,8.24-3.3,9.47L64.71,24.5s3.3-.65,3.22-2.85S66.32,18.05,66,17.4s-3.87-4.24.16-8.33A7.2,7.2,0,0,1,69.63,7.44Z"/><path class="cls-5" d="M45.58,5.4H40.8V27h3.31V18.05s5.52.37,5.79-6.52C49.9,11.53,49.81,6.23,45.58,5.4Zm1.29,6.32c-.28,4.09-2.94,3.63-2.94,3.63V7.91C47.05,8.09,46.87,11.72,46.87,11.72Z"/><path class="cls-5" d="M53,7.07H52.2L49.26,22.79H48l-.55,2.42h1.19l-.18,1.58h2.48L51.37,25h2.85l.46,1.68h2.94ZM51.74,22.7,52.82,18,54,22.7Z"/><path class="cls-1" d="M72.48,4.87a1.92,1.92,0,0,1,1.9,2,1.92,1.92,0,1,1-3.83,0,1.94,1.94,0,0,1,1.92-2Zm0,.3a1.61,1.61,0,0,0-1.55,1.66,1.61,1.61,0,0,0,1.56,1.66A1.59,1.59,0,0,0,74,6.84a1.61,1.61,0,0,0-1.55-1.67ZM72.11,8h-.35V5.78a4.68,4.68,0,0,1,.61,0,1.12,1.12,0,0,1,.68.17.53.53,0,0,1,.19.45.54.54,0,0,1-.42.53v0c.19,0,.32.21.36.53a1.88,1.88,0,0,0,.14.54H73a1.83,1.83,0,0,1-.15-.56A.4.4,0,0,0,72.35,7h-.24Zm0-1.21h.25c.28,0,.52-.11.52-.38S72.74,6,72.36,6l-.25,0Z"/></svg>