<svg xmlns="http://www.w3.org/2000/svg" viewBox="0 0 170 80"><defs><style>.cls-1{fill:#fff;}.cls-2{fill:#231f20;}.cls-3{fill:#fd0;}.cls-4{fill:#a7a9ac;}.cls-5{fill:#009d57;}.cls-6{fill:#008457;}</style></defs><title>SunPass_TC_logo</title><g id="SunPass_Icon" data-name="SunPass Icon"><path class="cls-1" d="M167.89,36.12c-5.82-1.2-11.63-2.23-17.3-3.06a4.78,4.78,0,0,1-.22-1.28,1.49,1.49,0,0,0,0-.63c-.14-1.15,2.92-3.09,5.53-3.92a2.63,2.63,0,0,0,1.83-2.38,6.77,6.77,0,0,0,8.76-6.65A6.78,6.78,0,0,0,153,17h0a18.06,18.06,0,0,0-8.87,4.29c-.34.35-.66.7-1,1.05l-1.07-3.53A2.64,2.64,0,0,0,139,17a17.94,17.94,0,0,0-8.86,4.29,15.75,15.75,0,0,0-4.85,9.37l-2.38-.09L120,18.13a2.64,2.64,0,0,0-2.56-2.05h-1.8a2.64,2.64,0,0,0-2.59,2.16l-.8,4.33c-1.43-4.33-4.53-8.91-10.46-10.09a3,3,0,0,0-.52-.05H97.65A28.18,28.18,0,0,0,74.78.67,28.53,28.53,0,0,0,47,23.64l-2.83-5.21a2.62,2.62,0,0,0-2.31-1.38H40.18a2.64,2.64,0,0,0-1.87.78,2.58,2.58,0,0,0-.41.57,2.65,2.65,0,0,0-.63-.08H31.88a2.63,2.63,0,0,0-2.29,1.34,2.64,2.64,0,0,0-2.3-1.36H21.23a2.56,2.56,0,0,0-1.54.51l-1.25-4.1a2.63,2.63,0,0,0-3.06-1.81C9,14.24,5.81,17.33,5.46,17.68c-6.82,6.94-7.25,14.73-1.29,23.14.19.27.35.48.41.58a13.78,13.78,0,0,0,1.27,1.93C7.17,45.11,9,47.56,9.1,50.88c.11,3-5.81,4.39-5.86,4.41a2.64,2.64,0,0,0-1.85,3.76l2.79,5.68A2.59,2.59,0,0,0,5.66,66c1.19.58,1.06,2,.63,2H2.63A2.64,2.64,0,0,0,0,70.67v6.68A2.64,2.64,0,0,0,2.63,80H155.72a2.77,2.77,0,0,0,2-.87,2.65,2.65,0,0,0,.66-2l-.69-6.69A2.63,2.63,0,0,0,155,68H150.4c-1.37,0-2.11-2.28-2.45-4.25,5-1.57,8.45-4.77,9.88-9.15a16,16,0,0,0-1.66-12.94c6.76-.4,11.1-.33,11.15-.33h.05a2.64,2.64,0,0,0,.52-5.23Z"/><path class="cls-2" d="M3.21,77.35V70.67H4.56a1.89,1.89,0,0,1,2.24,2,1.84,1.84,0,0,1-2,2H4.51v2.75Zm1.3-3.83c.63,0,1-.21,1-.89,0-.48-.19-.87-.74-.87H4.51Z"/><path class="cls-2" d="M11.23,77.35V70.67h1.31c.83,0,2.31.08,2.31,1.91a1.87,1.87,0,0,1-.93,1.73l1.14,3H13.69l-1.14-3.08h0v3.08Zm1.3-3.81h.23c.59,0,.83-.41.83-1a.74.74,0,0,0-.88-.83h-.18Z"/><path class="cls-2" d="M22.24,70.67v1.24H20.93v1.45h1.16V74.6H20.93v1.51h1.33v1.24H19.63V70.67Z"/><path class="cls-2" d="M26.82,77.35V70.67h1.35a1.88,1.88,0,0,1,2.23,2,1.84,1.84,0,0,1-2,2h-.28v2.75Zm1.3-3.83c.62,0,1-.21,1-.89,0-.48-.18-.87-.74-.87h-.24Z"/><path class="cls-2" d="M37,70.67l1.58,6.68H37.21L37,76.23H35.65l-.24,1.12H34.12l1.53-6.68Zm-.58,2.73-.15-1h0l-.14,1-.28,1.78h.91Z"/><path class="cls-2" d="M44.19,70.67v6.68h-1.3V70.67Z"/><path class="cls-2" d="M48.88,77.35V70.67h1c.23,0,3-.34,3,3.39,0,1.91-.72,3.29-2.78,3.29Zm2.64-3.3c0-.85-.26-2.2-1.34-2.2v4.32C51.23,76.22,51.52,74.89,51.52,74.05Z"/><path class="cls-2" d="M66.21,70.67v1.24h-1v5.44h-1.3V71.91h-1V70.67Z"/><path class="cls-2" d="M75,74c0,2.51-1.15,3.45-2.32,3.45s-2.31-.94-2.31-3.45,1.15-3.45,2.31-3.45S75,71.5,75,74Zm-2.32,2.23c.87,0,.93-1.7.93-2.23s-.06-2.23-.93-2.23-.92,1.64-.92,2.23S71.78,76.24,72.64,76.24Z"/><path class="cls-2" d="M80.72,70.67v5.44h1.36v1.24H79.42V70.67Z"/><path class="cls-2" d="M87.74,70.67v5.44H89.1v1.24H86.44V70.67Z"/><path class="cls-2" d="M99.37,77.35V70.67h1.35a1.89,1.89,0,0,1,2.24,2,1.84,1.84,0,0,1-2,2h-.29v2.75Zm1.3-3.83c.63,0,1-.21,1-.89,0-.48-.19-.87-.74-.87h-.25Z"/><path class="cls-2" d="M107.39,77.35V70.67h1.31c.83,0,2.31.08,2.31,1.91a1.87,1.87,0,0,1-.93,1.73l1.14,3h-1.37l-1.14-3.08h0v3.08Zm1.3-3.81h.23c.59,0,.83-.41.83-1a.74.74,0,0,0-.88-.83h-.18Z"/><path class="cls-2" d="M120.17,74c0,2.51-1.15,3.45-2.31,3.45s-2.31-.94-2.31-3.45,1.15-3.45,2.31-3.45S120.17,71.5,120.17,74Zm-2.31,2.23c.87,0,.93-1.7.93-2.23s-.06-2.23-.93-2.23-.92,1.64-.92,2.23S117,76.24,117.86,76.24Z"/><path class="cls-2" d="M128.86,73.63v.52c0,1.42-.34,3.31-2.11,3.31s-2.35-1.93-2.35-3.41.49-3.49,2.35-3.49a2,2,0,0,1,1.93,1.59l-1.26.49c-.06-.33-.17-.86-.67-.86-.88,0-1,1.6-1,2.23s0,2.23,1,2.23c.66,0,.77-.91.77-1.37h-.83V73.63Z"/><path class="cls-2" d="M133.32,77.35V70.67h1.3c.83,0,2.32.08,2.32,1.91a1.86,1.86,0,0,1-.94,1.73l1.15,3h-1.37l-1.15-3.08h0v3.08Zm1.3-3.81h.22c.6,0,.83-.41.83-1a.74.74,0,0,0-.88-.83h-.17Z"/><path class="cls-2" d="M144.21,70.67l1.58,6.68h-1.38l-.25-1.12h-1.32l-.23,1.12h-1.29l1.52-6.68Zm-.57,2.73-.15-1h0l-.14,1-.28,1.78H144Z"/><path class="cls-2" d="M152.11,70.67l.64,3.94h0l.52-3.94H155l.69,6.68h-1.33l-.32-4.81h0l-.21,1.65-.56,3.16h-1l-.64-3.2-.22-1.49v-.12h0l-.19,4.81h-1.4l.58-6.68Z"/><path class="cls-3" d="M49,29.48a25.74,25.74,0,1,1,51.48,0,25.74,25.74,0,1,1-51.48,0Z"/><path class="cls-4" d="M49.44,51.45S79.86,20.71,167.37,38.71c0,0-66.43-1.21-91.88,29.92Z"/><path class="cls-1" d="M59.51,58.2s26.72-29,107.86-19.49c0,0-73.24-7.12-104.46,21.79Z"/><polygon class="cls-4" points="70.19 49.56 74.38 52.4 77.57 50.78 73.38 47.33 70.19 49.56"/><polygon class="cls-4" points="81.96 43.68 86.72 47.33 89.12 46.31 83.96 42.67 81.96 43.68"/><polygon class="cls-4" points="96.71 39.82 101.08 43.93 103.57 43.16 98.8 39.01 96.71 39.82"/><polygon class="cls-4" points="109.22 37.04 113.15 41.57 115.7 41.07 111.38 36.45 109.22 37.04"/><polygon class="cls-4" points="123.86 35.97 125.39 39.69 126.78 39.28 125.68 36.19 123.86 35.97"/><polygon class="cls-4" points="138.03 35.57 138.54 38.32 139.41 38.28 139.09 35.53 138.03 35.57"/><polygon class="cls-4" points="142.82 35.57 143.34 38.32 144.2 38.28 143.88 35.53 142.82 35.57"/><path class="cls-5" d="M37.27,56.26V21H31.88V55.24a2.55,2.55,0,0,1-2.59,2.64c-1.8,0-2-2.84-2-2.84V21H21.23V56c.8,7.71,8.07,7.32,8.07,7.32C34.14,63.24,37.2,60.45,37.27,56.26Z"/><path class="cls-6" d="M15.92,15.48l1.79,5.89s-9,2.84-8.38,7.7c0,0-.6,4.26,5.39,11s6.39,20.49-8.18,23.53L3.75,57.88s8.18-1.62,8-7.1-4-8.93-4.79-10.55-9.58-10.55.4-20.69C7.34,19.54,10.13,16.7,15.92,15.48Z"/><path class="cls-6" d="M139.56,19.54l1.58,5.16s-7.88,2.5-7.36,6.77c0,0-.52,3.74,4.73,9.61s5.6,18-7.18,20.65l-2.45-5s7.18-1.43,7-6.23-3.5-7.84-4.2-9.26S123.27,32,132,23.1A15.58,15.58,0,0,1,139.56,19.54Z"/><path class="cls-6" d="M153.53,19.54l1.57,5.16s-7.88,2.5-7.35,6.77c0,0-.53,3.74,4.73,9.61s5.6,18-7.18,20.65l-2.46-5s7.18-1.43,7-6.23-3.5-7.84-4.2-9.26S137.24,32,146,23.1A15.58,15.58,0,0,1,153.53,19.54Z"/><polygon class="cls-5" points="40.21 62.97 46.84 62.95 46.84 42.06 57.73 62.94 58.82 63.01 58.82 20.55 53.23 20.55 53.23 40.64 41.85 19.7 40.18 19.7 40.21 62.97"/><path class="cls-6" d="M101.31,15.08H90.94V62.14h7.18V42.67s12,.81,12.57-14.2C110.69,28.47,110.49,16.9,101.31,15.08Zm2.8,13.79c-.6,8.93-6.39,7.91-6.39,7.91V20.56C104.51,21,104.11,28.87,104.11,28.87Z"/><path class="cls-6" d="M117.48,18.73h-1.8L109.3,53h-2.8l-1.19,5.28h2.59l-.4,3.44h5.39l1-3.85h6.18l1,3.65h6.38Zm-2.8,34.08L117,42.46l2.64,10.35Z"/><path class="cls-5" d="M15.92,15.48l1.79,5.89s-9,2.84-8.38,7.7c0,0-.6,4.26,5.39,11s6.39,20.49-8.18,23.53L3.75,57.88s8.18-1.62,8-7.1-4-8.93-4.79-10.55-9.58-10.55.4-20.69C7.34,19.54,10.13,16.7,15.92,15.48Z"/><path class="cls-5" d="M139.56,19.54l1.58,5.16s-7.88,2.5-7.36,6.77c0,0-.52,3.74,4.73,9.61s5.6,18-7.18,20.65l-2.45-5s7.18-1.43,7-6.23-3.5-7.84-4.2-9.26S123.27,32,132,23.1A15.58,15.58,0,0,1,139.56,19.54Z"/><path class="cls-5" d="M153.53,19.54l1.57,5.16s-7.88,2.5-7.35,6.77c0,0-.53,3.74,4.73,9.61s5.6,18-7.18,20.65l-2.46-5s7.18-1.43,7-6.23-3.5-7.84-4.2-9.26S137.24,32,146,23.1A15.58,15.58,0,0,1,153.53,19.54Z"/><path class="cls-5" d="M101.31,15.08H90.94V62.14h7.18V42.67s12,.81,12.57-14.2C110.69,28.47,110.49,16.9,101.31,15.08Zm2.8,13.79c-.6,8.93-6.39,7.91-6.39,7.91V20.56C104.51,21,104.11,28.87,104.11,28.87Z"/><path class="cls-5" d="M117.48,18.73h-1.8L109.3,53h-2.8l-1.19,5.28h2.59l-.4,3.44h5.39l1-3.85h6.18l1,3.65h6.38Zm-2.8,34.08L117,42.46l2.64,10.35Z"/><path class="cls-2" d="M159.71,13.93a4.18,4.18,0,0,1,4.14,4.27,4.16,4.16,0,1,1-4.15-4.27Zm0,.66a3.51,3.51,0,0,0-3.37,3.61,3.49,3.49,0,0,0,3.38,3.63,3.46,3.46,0,0,0,3.37-3.61,3.49,3.49,0,0,0-3.37-3.63Zm-.79,6.1h-.75V15.92a9.36,9.36,0,0,1,1.33-.11,2.44,2.44,0,0,1,1.46.36,1.15,1.15,0,0,1,.43,1,1.19,1.19,0,0,1-.92,1.16v0c.41.07.69.45.79,1.16a3.63,3.63,0,0,0,.3,1.17h-.79a3.76,3.76,0,0,1-.32-1.21.88.88,0,0,0-1-.84h-.52Zm0-2.64h.54c.62,0,1.14-.23,1.14-.82,0-.41-.29-.83-1.14-.83a3.41,3.41,0,0,0-.54,0Z"/></g></svg>