<svg id="Layer_1" data-name="Layer 1" xmlns="http://www.w3.org/2000/svg" xmlns:xlink="http://www.w3.org/1999/xlink" viewBox="0 0 22 19"><defs><style>.cls-1{fill:none;}.cls-2{clip-path:url(#clip-path);}.cls-3{fill:#666;}</style><clipPath id="clip-path"><rect class="cls-1" width="22" height="19"/></clipPath></defs><title>Traffic Cars</title><g class="cls-2"><path class="cls-3" d="M20.47,7.36a.79.79,0,0,1-.76.56H18.18a.56.56,0,0,1-.55-.37c-.21-.5-.1-.81.48-1A10.59,10.59,0,0,1,19.87,6a.66.66,0,0,1,.5.2,1,1,0,0,1,.1,1.12M14,3.9h0c-1.9,0-3.8.07-5.72.19.36-.82.67-1.59,1-2.33A1.61,1.61,0,0,1,10.63.92c1.1-.12,2.19-.19,3.29-.2H14a32.8,32.8,0,0,1,3.28.2,1.6,1.6,0,0,1,1.36.84c.38.74.68,1.51,1.05,2.33C17.75,4,15.85,3.9,14,3.9m8,2.28a2.59,2.59,0,0,0-1-1.74l.63-.3A.59.59,0,0,0,22,3.51.52.52,0,0,0,21.51,3a4.16,4.16,0,0,0-.72-.13c-.38,0-.47,0-.8.47-.06-.13-.12-.25-.17-.37-.13-.33-.28-.65-.4-1A2.61,2.61,0,0,0,16.93.14c-1-.08-2-.13-3-.14h0c-1,0-2,.06-3,.14A2.61,2.61,0,0,0,8.48,2c-.12.34-.27.66-.41,1-.05.12-.11.24-.17.37-.33-.43-.42-.5-.8-.47A4.54,4.54,0,0,0,6.38,3a.51.51,0,0,0-.44.49.57.57,0,0,0,.35.63l.64.3a2.61,2.61,0,0,0-1,1.7c.67,0,1.31-.07,1.93-.09A.46.46,0,0,1,8,6h.4c1,0,1.95.06,3.05.14a4,4,0,0,1,2.08.72,3.9,3.9,0,0,1,1.34,1.87l.06.17h.39a7.15,7.15,0,0,1,.87.15,1.6,1.6,0,0,1,1.27,1.39h.65v.31a1,1,0,0,0,1.06,1.05h1.34a.94.94,0,0,0,1-1A11.85,11.85,0,0,1,21.89,8,6,6,0,0,0,22,6.18"/><path class="cls-3" d="M14.58,14.51a.79.79,0,0,1-.77.56H12.29a.53.53,0,0,1-.55-.36c-.21-.5-.11-.82.48-1.05A10.34,10.34,0,0,1,14,13.2a.62.62,0,0,1,.5.2,1,1,0,0,1,.1,1.11m-10.21.2a.54.54,0,0,1-.55.36H2.29a.78.78,0,0,1-.76-.56,1,1,0,0,1,.1-1.11.62.62,0,0,1,.5-.2,10.59,10.59,0,0,1,1.76.46c.58.23.69.55.48,1.05m-1-5.8a1.59,1.59,0,0,1,1.36-.83A30.07,30.07,0,0,1,8,7.88h.06a30.1,30.1,0,0,1,3.29.2,1.6,1.6,0,0,1,1.36.83c.37.74.68,1.52,1,2.34-1.92-.12-3.82-.19-5.72-.19s-3.8.07-5.71.19c.36-.82.66-1.6,1-2.34m12.7,4.43a2.6,2.6,0,0,0-1-1.74l.64-.3a.59.59,0,0,0,.35-.64.51.51,0,0,0-.44-.49,6,6,0,0,0-.72-.12c-.38,0-.47,0-.8.46-.06-.13-.12-.24-.17-.36-.14-.33-.28-.66-.4-1A2.65,2.65,0,0,0,11,7.29c-1-.08-2-.13-3-.13h0c-1,0-2,0-3,.13A2.63,2.63,0,0,0,2.58,9.16c-.12.33-.27.66-.4,1-.05.12-.11.23-.17.36-.33-.43-.42-.49-.8-.46a5.41,5.41,0,0,0-.72.12.53.53,0,0,0-.45.49.61.61,0,0,0,.36.64l.63.3a2.59,2.59,0,0,0-1,1.74,6.25,6.25,0,0,0,.08,1.78A11.94,11.94,0,0,1,.5,18a.93.93,0,0,0,1,1H2.81A1,1,0,0,0,3.87,18v-.31h8.37c0,.09,0,.2,0,.31A1,1,0,0,0,13.3,19h1.34a.94.94,0,0,0,1-1A11.48,11.48,0,0,1,16,15.12a6.63,6.63,0,0,0,.08-1.78"/></g></svg>