<svg id="Layer_1" data-name="Layer 1" xmlns="http://www.w3.org/2000/svg" viewBox="0 0 20 20"><defs><style>.cls-1{fill:#fff;}</style></defs><title>UsingCalculator_Icon</title><path class="cls-1" d="M18.94,0H7.06A1,1,0,0,0,6,1V7.42a1.43,1.43,0,0,1,.39.11,2.64,2.64,0,0,1,.39.25A1,1,0,0,1,7,8a1.94,1.94,0,0,1,.24,0,.52.52,0,0,1,.52-.47h2a.51.51,0,0,1,.53.52V9s.11.06.15.1h0l1.07-1.26s.08-.06.11-.1h0a1.67,1.67,0,0,1,1.27-.46,1.92,1.92,0,0,1,.79.24H14a.51.51,0,0,1,.53.52v.67a1.59,1.59,0,0,1-.31,1.48l-.68.81H14a.51.51,0,0,1,.53.51v1.28a.52.52,0,0,1-.53.52H12a.53.53,0,0,1-.2,0,1.5,1.5,0,0,1,.34.8,2,2,0,0,1,0,.42H14a.51.51,0,0,1,.53.51v1.28a.52.52,0,0,1-.53.52H12a.51.51,0,0,1-.53-.52v0l0,0-.17.24A5.85,5.85,0,0,1,10,17.62a4.76,4.76,0,0,1-.79.38h9.7A1,1,0,0,0,20,17V1A1,1,0,0,0,18.94,0Zm-.13,16.22a.52.52,0,0,1-.53.52h-2a.51.51,0,0,1-.53-.52V14.94a.51.51,0,0,1,.53-.51h2a.51.51,0,0,1,.53.51Zm0-3.48a.52.52,0,0,1-.53.52h-2a.51.51,0,0,1-.53-.52V11.46A.51.51,0,0,1,16.3,11h2a.51.51,0,0,1,.53.51Zm0-3.47a.51.51,0,0,1-.53.51h-2a.51.51,0,0,1-.53-.51V8a.52.52,0,0,1,.53-.52h2a.51.51,0,0,1,.53.52Zm0-4.37a1,1,0,0,1-1,1H8.24a1,1,0,0,1-1-1V2.31a1,1,0,0,1,1-1h9.52a1,1,0,0,1,1,1Z"/><path class="cls-1" d="M10.62,15.7a2.9,2.9,0,0,0,.2-.33s.25-.51.33-.71a1.54,1.54,0,0,0,.08-.63.44.44,0,0,0-.27-.37c-.84-.24-1.16.49-1.44,1.16a1,1,0,0,1,0-.5,2.16,2.16,0,0,1,.39-.79l3.64-4.29a.58.58,0,0,0,.13-.61.84.84,0,0,0-.25-.47,1.08,1.08,0,0,0-.6-.24.66.66,0,0,0-.58.22L9.15,11.83l0,0,0-.05.81-1a.71.71,0,0,0,.12-.65,1,1,0,0,0-.31-.57,1.23,1.23,0,0,0-.54-.24.64.64,0,0,0-.66.18l-1,1.13H7.46l0,0L7.91,10a.9.9,0,0,0,.18-.62.8.8,0,0,0-.27-.59.93.93,0,0,0-.58-.18.69.69,0,0,0-.61.25L6,9.61l0,0,0,0,.17-.19a.66.66,0,0,0,.07-.64,1,1,0,0,0-.25-.47l-.21-.12a1,1,0,0,0-.44,0,.68.68,0,0,0-.49.19L1.86,11.75A2.64,2.64,0,0,0,1.46,13a4.77,4.77,0,0,0-.09,1.23,1.07,1.07,0,0,1,0,.45h0L0,16.22,4.45,20l1.36-1.61s3.32-1.34,3.62-1.53a5.52,5.52,0,0,0,1.05-1Z"/></svg>